{"accessors":[{"bufferView":2,"componentType":5126,"count":4029,"max":[52.503196716308594,242.48831176757812,225.57557678222656],"min":[-53.166664123535156,-281.18710327148438,2.7471306324005127],"type":"VEC3"},{"bufferView":2,"byteOffset":48348,"componentType":5126,"count":4029,"max":[0.99950367212295532,0.99975365400314331,0.99994933605194092],"min":[-0.99963635206222534,-0.98429358005523682,-0.99939793348312378],"type":"VEC3"},{"bufferView":1,"componentType":5126,"count":4029,"max":[0.99500000476837158,0.9944000244140625],"min":[0.0052000000141561031,0.0074000000022351742],"type":"VEC2"},{"bufferView":1,"byteOffset":32232,"componentType":5126,"count":4029,"max":[0.99500000476837158,0.9944000244140625],"min":[0.0052000000141561031,0.0074000000022351742],"type":"VEC2"},{"bufferView":3,"componentType":5126,"count":4029,"max":[0.99998718500137329,0.99902737140655518,0.99904990196228027,1],"min":[-0.99787962436676025,-0.99979555606842041,-0.99991244077682495,-1],"type":"VEC4"},{"bufferView":0,"componentType":5125,"count":21306,"max":[4028],"min":[0],"type":"SCALAR"},{"bufferView":2,"byteOffset":96696,"componentType":5126,"count":3312,"max":[54.148773193359375,238.66612243652344,185.50799560546875],"min":[-54.178256988525391,-26.858737945556641,1.2306990623474121],"type":"VEC3"},{"bufferView":2,"byteOffset":136440,"componentType":5126,"count":3312,"max":[0.99982523918151855,0.99976229667663574,0.9997028112411499],"min":[-0.99931234121322632,-0.99996870756149292,-0.99964743852615356],"type":"VEC3"},{"bufferView":3,"byteOffset":64464,"componentType":5126,"count":3312,"max":[0.99965465068817139,0.99475944042205811,0.99978780746459961,1],"min":[-0.99992048740386963,-0.99622750282287598,-0.99994397163391113,-1],"type":"VEC4"},{"bufferView":0,"byteOffset":85224,"componentType":5125,"count":11040,"max":[3311],"min":[0],"type":"SCALAR"},{"bufferView":2,"byteOffset":176184,"componentType":5126,"count":74,"max":[13.770684242248535,196.80435180664062,213.64523315429688],"min":[-20.530368804931641,190.02696228027344,205.48918151855469],"type":"VEC3"},{"bufferView":2,"byteOffset":177072,"componentType":5126,"count":74,"max":[0.98555803298950195,0.97454953193664551,0.95440524816513062],"min":[-0.97539359331130981,-0.79615998268127441,-0.9466511607170105],"type":"VEC3"},{"bufferView":1,"byteOffset":64464,"componentType":5126,"count":74,"max":[0.97610002756118774,0.97310000658035278],"min":[0.023900000378489494,0.024100000038743019],"type":"VEC2"},{"bufferView":1,"byteOffset":65056,"componentType":5126,"count":74,"max":[0.97610002756118774,0.97310000658035278],"min":[0.023900000378489494,0.024100000038743019],"type":"VEC2"},{"bufferView":3,"byteOffset":117456,"componentType":5126,"count":74,"max":[0.99633854627609253,0.98938721418380737,0.24493372440338135,1],"min":[-0.99143469333648682,-0.10918150097131729,-0.46474936604499817,-1],"type":"VEC4"},{"bufferView":0,"byteOffset":129384,"componentType":5125,"count":360,"max":[73],"min":[0],"type":"SCALAR"}],"asset":{"generator":"Sketchfab (OSG glTF plugin)","version":"2.0"},"bufferViews":[{"buffer":0,"byteLength":130824,"byteOffset":0,"name":"ScalarBufferView","target":34962},{"buffer":0,"byteLength":65648,"byteOffset":130824,"byteStride":8,"name":"Vec2BufferView","target":34962},{"buffer":0,"byteLength":177960,"byteOffset":196472,"byteStride":12,"name":"Vec3BufferView","target":34962},{"buffer":0,"byteLength":118640,"byteOffset":374432,"byteStride":16,"name":"Vec4BufferView","target":34962}],"buffers":[{"byteLength":493072,"uri":"scene.bin"}],"extensionsRequired":["KHR_materials_pbrSpecularGlossiness"],"extensionsUsed":["KHR_materials_pbrSpecularGlossiness"],"images":[{"uri":"textures\/Material #4_diffuse.png"},{"uri":"textures\/Material #4_normal.png"},{"uri":"textures\/Material #3_diffuse.png"},{"uri":"textures\/Material #3_specularGlossiness.png"},{"uri":"textures\/Material #3_normal.png"}],"materials":[{"doubleSided":true,"extensions":{"KHR_materials_pbrSpecularGlossiness":{"diffuseFactor":[1,1,1,1],"diffuseTexture":{"index":2,"texCoord":0},"glossinessFactor":1,"specularFactor":[1,1,1],"specularGlossinessTexture":{"index":3,"texCoord":0}}},"name":"Material #3","normalTexture":{"index":4,"scale":1,"texCoord":1}},{"doubleSided":true,"emissiveFactor":[0,0,0],"extensions":{"KHR_materials_pbrSpecularGlossiness":{"diffuseFactor":[0.14902000000000001,0.12548999999999999,0.101961,1],"glossinessFactor":0.16506069679999999,"specularFactor":[0.050000000000000003,0.050000000000000003,0.050000000000000003]}},"name":"01 - Default"},{"doubleSided":true,"emissiveFactor":[0,0,0],"extensions":{"KHR_materials_pbrSpecularGlossiness":{"diffuseFactor":[1,1,1,1],"diffuseTexture":{"index":0,"texCoord":0},"glossinessFactor":0.25900804290000001,"specularFactor":[0.050000000000000003,0.050000000000000003,0.050000000000000003]}},"name":"Material #4","normalTexture":{"index":1,"scale":1,"texCoord":1}}],"meshes":[{"name":"Trex_Mesh","primitives":[{"attributes":{"NORMAL":1,"POSITION":0,"TANGENT":4,"TEXCOORD_0":2,"TEXCOORD_1":3},"indices":5,"material":0,"mode":4},{"attributes":{"NORMAL":7,"POSITION":6,"TANGENT":8},"indices":9,"material":1,"mode":4},{"attributes":{"NORMAL":11,"POSITION":10,"TANGENT":14,"TEXCOORD_0":12,"TEXCOORD_1":13},"indices":15,"material":2,"mode":4}]}],"nodes":[{"children":[1],"name":"RootNode (gltf orientation matrix)","rotation":[-0.70710678118654746,-0,-0,0.70710678118654757]},{"children":[2],"name":"RootNode (model correction matrix)"},{"children":[3],"matrix":[1,0,0,0,0,0,1,0,0,-1,0,0,0,0,0,1],"name":"d4b11e89b622426790226a62a61f9f0b.fbx"},{"children":[4],"name":""},{"children":[5],"name":"RootNode"},{"children":[6,8],"name":""},{"children":[7],"matrix":[1,0,0,0,0,6.123233995736766e-17,-1,0,0,1,6.123233995736766e-17,0,-6.7762635780344027e-21,0,0,1],"name":""},{"mesh":0,"name":"Trex_Mesh"},{"matrix":[1,0,0,0,0,2.2204460492503131e-16,-1,0,0,1,2.2204460492503131e-16,0,0,0,0,1],"name":"Trex_Mesh"}],"samplers":[{"magFilter":9729,"minFilter":9987,"wrapS":10497,"wrapT":10497}],"scene":0,"scenes":[{"name":"OSG_Scene","nodes":[0]}],"textures":[{"sampler":0,"source":0},{"sampler":0,"source":1},{"sampler":0,"source":2},{"sampler":0,"source":3},{"sampler":0,"source":4}]}
