{"accessors":[{"bufferView":2,"componentType":5126,"count":715,"max":[0.39633041620254517,0.94274133443832397,-0.99776560068130493],"min":[-0.39564892649650574,0.58014094829559326,-1.4346270561218262],"type":"VEC3"},{"bufferView":2,"byteOffset":8580,"componentType":5126,"count":715,"max":[0.12646695971488953,0.12654703855514526,0.12504252791404724],"min":[-0.12646695971488953,-0.12657055258750916,-0.12658484280109406],"type":"VEC3"},{"bufferView":1,"componentType":5126,"count":715,"max":[0.99347567558288574,0.98489594459533691],"min":[0.016240615397691727,0.019419580698013306],"type":"VEC2"},{"bufferView":3,"componentType":5126,"count":715,"max":[0.9999992847442627,0.99657338857650757,0.99637109041213989,1],"min":[-0.9969867467880249,-0.96164971590042114,-0.99753701686859131,-1],"type":"VEC4"},{"bufferView":0,"componentType":5125,"count":3690,"max":[714],"min":[0],"type":"SCALAR"}],"asset":{"generator":"Sketchfab (OSG glTF plugin)","version":"2.0"},"bufferViews":[{"buffer":0,"byteLength":14760,"byteOffset":0,"name":"ScalarBufferView","target":34962},{"buffer":0,"byteLength":5720,"byteOffset":14760,"byteStride":8,"name":"Vec2BufferView","target":34962},{"buffer":0,"byteLength":17160,"byteOffset":20480,"byteStride":12,"name":"Vec3BufferView","target":34962},{"buffer":0,"byteLength":11440,"byteOffset":37640,"byteStride":16,"name":"Vec4BufferView","target":34962}],"buffers":[{"byteLength":49080,"uri":"scene.bin"}],"extensionsRequired":["KHR_materials_pbrSpecularGlossiness"],"extensionsUsed":["KHR_materials_pbrSpecularGlossiness"],"images":[{"uri":"textures\/Material.002_diffuse.png"}],"materials":[{"doubleSided":true,"emissiveFactor":[0,0,0],"extensions":{"KHR_materials_pbrSpecularGlossiness":{"diffuseFactor":[1,1,1,1],"diffuseTexture":{"index":0,"texCoord":0},"glossinessFactor":0,"specularFactor":[0,0,0]}},"name":"Material.002","occlusionFactor":1}],"meshes":[{"name":"Cube.001","primitives":[{"attributes":{"NORMAL":1,"POSITION":0,"TANGENT":3,"TEXCOORD_0":2},"indices":4,"material":0,"mode":4}]}],"nodes":[{"children":[1],"name":"RootNode (gltf orientation matrix)","rotation":[-0.70710678118654746,-0,-0,0.70710678118654757]},{"children":[2],"name":"RootNode (model correction matrix)"},{"children":[3],"matrix":[1,0,0,0,0,0,1,0,0,-1,0,0,0,0,0,1],"name":"hummingbird.fbx"},{"children":[4],"name":""},{"children":[5,9,10,13],"name":"RootNode"},{"children":[6],"matrix":[7.8997573852539062,0,0,0,-0,-1.2870338402362041e-06,-7.8997573852538014,0,0,7.8997573852538014,-1.2870338402362041e-06,0,-0.014559365808963776,8.4248266220092773,-6.3256525993347168,1],"name":"Armature"},{"children":[7],"name":""},{"children":[8],"matrix":[-7.8997569143937607,5.9604706736229367e-08,1.1622905748404343e-06,0,1.1622903755162844e-06,1.4062016185874558e-06,7.8997554875314924,0,5.9604497846853355e-08,7.8997566499825238,-1.406201834279987e-06,0,-0.014559836934654118,8.4248260973074593,-6.3256523335470209,1],"name":""},{"mesh":0,"name":"Cube.001"},{"matrix":[-7.8997569084166566,9.6857760907784264e-08,1.1928301070650459e-06,0,1.1928298983763754e-06,5.9641493101540835e-07,7.8997554779051606,0,9.6857670851617606e-08,7.8997569084167241,-5.9641505304880455e-07,0,-0.014559837058186531,8.4248266220092773,-6.325653076171875,1],"name":"Cube.001"},{"children":[11],"matrix":[-29.08647719990347,-5.5189064575668629,-95.517119101714371,0,-56.639321049274358,-79.467215491446765,21.839126521780674,0,-77.110075831668397,60.452480301453917,19.988342368407498,0,409.23641967773438,590.38623046875,-100.39886474609375,1],"name":"Lamp"},{"children":[12],"matrix":[1,0,0,0,0,2.2204460492503131e-16,1,0,0,-1,2.2204460492503131e-16,0,0,0,0,1],"name":""},{"name":""},{"children":[14],"matrix":[65.48618697104817,44.524540868444276,61.06655857707355,0,-31.737012751203437,89.53432428981057,-31.246868572658435,0,-68.588055356766532,1.0816812937618547,72.763374220522891,0,749.72503662109375,534.36651611328125,650.9105224609375,1],"name":"Camera"},{"name":""}],"samplers":[{"magFilter":9729,"minFilter":9987,"wrapS":10497,"wrapT":10497}],"scene":0,"scenes":[{"name":"OSG_Scene","nodes":[0]}],"textures":[{"sampler":0,"source":0}]}
